<svg xmlns="http://www.w3.org/2000/svg" xmlns:xlink="http://www.w3.org/1999/xlink" width="435" height="328" viewBox="0 0 435 328">
    <defs>
        <path id="a" d="M0 .589h435v326.909H0z"/>
    </defs>
    <g fill="none" fill-rule="evenodd">
        <g transform="translate(0 -.087)">
            <mask id="b" fill="#fff">
                <use xlink:href="#a"/>
            </mask>
            <path fill="#EDF6FF" d="M121.636 316.52S23.178 300.09 2.055 219.372c-7.679-29.347 6.68-60.174 34.417-72.371 17.447-7.67 42.848-12.71 79.826-11.068 0 0 87.73 10.43 103.25-56.289 5.321-22.872 16.87-40.123 31.768-52.425 35.791-29.554 86.02-35.33 126.802-13.193 21.215 11.515 38.35 31.817 47.256 64.944 25.646 95.375-2.023 175.049-58.46 212.897-47.023 31.536-118.47 47.955-245.278 24.653" mask="url(#b)"/>
        </g>
        <path fill="#92C3FE" d="M119.719 272.78l-11.22-98.428h-6.07l5.629 42.446H95.407l5.626-42.446h-6.067l-11.22 98.429a2.101 2.101 0 1 0 4.17.517l6.89-51.962h13.853l6.89 51.961a2.101 2.101 0 0 0 4.17-.516M253.487 272.78l-11.219-98.428H236.2l5.627 42.446h-12.651l5.628-42.446h-6.07l-11.22 98.429a2.101 2.101 0 1 0 4.17.517l6.89-51.962h13.854l6.89 51.961a2.101 2.101 0 0 0 4.17-.516"/>
        <path fill="#BDF" d="M89.809 176.155v-8.97h166.396v9.611z"/>
        <path fill="#E0EDFC" d="M75.342 170.414h192.473v-6.457H75.341z"/>
        <path fill="#D5E7FF" d="M160.97 143.633l-8.356 15.51c-1.171 2.173.401 4.812 2.868 4.812h49.283l-20.577-11.058 4.154-9.264h-27.373z"/>
        <path fill="#B3D2FA" d="M226.677 135.385l-6.28-55.785a7.192 7.192 0 0 0-7.143-6.392h-86.387c-3.86 0-6.91 3.274-6.648 7.13l3.933 57.656a6.043 6.043 0 0 0 6.027 5.638h89.14c4.418 0 7.853-3.849 7.358-8.247"/>
        <path fill="#D5E7FF" d="M226.677 135.385l-6.28-55.785a7.192 7.192 0 0 0-7.143-6.392h-81.525c-4.344 0-7.775 3.694-7.46 8.033l3.962 54.74a8.239 8.239 0 0 0 8.212 7.651h82.877c4.417 0 7.852-3.849 7.357-8.247"/>
        <path fill="#F00" d="M131.212 81.928l4.215 53.584a.808.808 0 0 0 .805.747h83.115a.81.81 0 0 0 .806-.892l-5.498-53.585a.809.809 0 0 0-.804-.729H132.02a.811.811 0 0 0-.807.875"/>
        <path fill="#B3D2FA" d="M158.284 155.092l6.462-11.46h-3.776l-8.355 15.51c-1.173 2.175.4 4.813 2.868 4.813h24.363l-.95-1.283a5.29 5.29 0 0 0-4.02-2.133l-13.91-.605c-2.418-.107-3.872-2.731-2.682-4.842"/>
        <path fill="#92C3FE" d="M316.856 286.734v-55.212h4.672l-2.266 55.32c-.039.945-.564 1.681-1.202 1.681-.666 0-1.204-.8-1.204-1.79M266.257 293.327v-55.212h4.673l-2.267 55.32c-.04.945-.565 1.681-1.201 1.681-.666 0-1.205-.8-1.205-1.79"/>
        <path fill="#C6DFFF" d="M263.284 237.974s10.902 9.5 30.864 10.208v54.312a1.082 1.082 0 0 0 2.158.089l4.45-54.685s15.007.096 24.256-3.686l1.243 56.289a1.453 1.453 0 0 0 2.904.009l1.658-57.858s9.874-1.39 10.938-22.445c.352-6.944 1.195-13.853 2.78-20.624 2.31-9.879 6.223-22.588 12.238-30.478.888-1.163 1.492-2.539 1.542-4.002.096-2.78-1.503-6.724-10.272-8.803-15.24-3.613-22.086 5.86-22.086 5.86s-4.341 6.805-6.797 16.638c-2.454 9.83-55.876 59.176-55.876 59.176"/>
        <path fill="#E0EDFC" d="M266.257 229.433s14.016 14.922 46.58 7.69c0 0 20.953-3.83 23.218-22.12 2.463-19.88 8.07-38.852 8.07-38.852l3.85-8.672c1.042-2.35-.583-5.022-3.146-5.149a36.993 36.993 0 0 1-10.938-2.233c-2.36-.87-5.009-.193-6.582 1.774-4.13 5.16-11.477 14.37-11.781 14.925-.426.774-49.27 52.637-49.27 52.637"/>
        <path fill="#AED3FE" d="M321.529 182.768c-1.442-3.19-2.964-5.79-4.545-7.899-.833 1.067-1.379 1.785-1.457 1.926-.424.774-49.27 52.637-49.27 52.637s8.431 8.963 27.391 9.625c2.973-.84 46.955-14.08 27.88-56.289"/>
        <path fill="#FDAA8A" d="M198.44 303.577s4.249-5.342 7.646-10.445l7.079 5.955s-5.946 12.62-9.203 16.165c-3.256 3.545-10.093-5.63-5.521-11.675M239.074 313.125l1.557-13.328h11.751s-1.132 12.903-1.275 14.32c-.14 1.418-12.033-.992-12.033-.992"/>
        <path fill="#001C68" d="M239.74 305.046l13.178-1.337a1.53 1.53 0 0 0 1.382-1.432c.535-8.806 3.817-60.001 8.983-80.184l22.653-22.68-12.181-5.955-33.878 15.78c-4.153 2.273-6.847 6.057-6.448 10.809 1.58 18.828 4.782 64.04 4.932 83.767a1.25 1.25 0 0 0 1.378 1.232"/>
        <path fill="#003180" d="M212.117 301.98c-2.128-.528-7.216-2.12-12.588-6.229a1.4 1.4 0 0 1-.454-1.592c2.395-6.513 16.678-44.67 30.372-66.536 0 0 10.633-10.381 49.504-28.21 38.873-17.83 44.663-11.446 44.663-11.446s8.62 33.842-35.034 47.927c0 0-15.149 5.108-28.217 5.195-3.045.02-5.93 1.309-8.06 3.488-5.68 5.814-17.614 20.523-38.612 56.722-.32.55-.959.834-1.574.68"/>
        <path fill="#001C68" d="M202.495 310.044c-1.106-.12-1.913-1.128-1.88-2.241.048-1.681-.054-5.176-1.627-6.446-1.607-1.298-4.87.87-6.329 1.97-.5.376-1.102.579-1.726.573l-3.28-.023c-2.755-.02-5.476-.668-7.901-1.98-2.112-1.141-5.462-2.164-9.91-1.063-1.343.332-2.149 1.697-1.751 3.025.843 2.819 3.552 7.715 12.189 12.184.492.255 1.01.473 1.533.656 1.747.612 6.588 2.203 11.743 5.359 9.038 5.53 13.379-8.507 13.379-8.507s1.275-2.341 0-3.334c-.828-.643-2.852-.001-4.44-.173M244.667 312.17c-1.514.053-2.772-1.106-2.397-2.575.565-2.219.706-5.304-2.77-5.545 0 0-1.664-.506-3.787 3.673-1.33 2.62-3.643 4.67-6.508 5.32-.746.168-1.563.272-2.448.272-4.33 0-8.597 2.762-9.453 6.258-.285 1.165.459 2.324 1.641 2.52 2.866.48 9.733 1.19 23.677.626 1.72-.07 3.435-.305 5.117-.675 1.462-.322 3.064-.365 5.09-.365 1.819 0 3.806-1.156 3.713-2.75-.115-2.001-.444-3.606-1.045-6.089 0 0-.8-4.994-3.114-5.103-2.23-.105-2.483 1.184-3.264 2.157-.606.754-1.07 1.513-1.976 1.848-.628.233-1.414.39-2.476.428"/>
        <path fill="#FDAA8A" d="M197.096 151.971c4.709 2.927 33.002 19.852 51.087 23.992v-12.194l18.074 8.22s.007 9.034-.76 17.571c-.461 5.108-5.201 8.709-10.225 7.717-4.08-.805-9.414-2.472-15.772-5.812-15.48-8.129-46.817-32.517-46.817-32.517s-9.108 1.606-14.488.117c0 0-2.477-.78-.567-1.843 0 0 6.159.566 8.78.07 0 0-7.789-.495-10.62-1.559 0 0-1.982-1.04-.424-1.938 0 0 7.33 1.376 10.052 1.3 0 0-7.646-1.207-9.84-2.553 0 0-1.133-1.63 1.062-1.915 0 0 4.483 2.127 7.55 2.27 0 0-5.215-1.771-6.983-2.907 0 0-1.63-2.126.282-2.057 0 0 10.053 3.688 12.672 2.625 0 0 .495.212 2.406-2.198 1.91-2.411 2.124-4.113 4.885-4.182 0 0 1.133.778.07 3.048-.628 1.341-1.307 2.584-1.25 3.4a1.73 1.73 0 0 0 .826 1.345"/>
        <path fill="#579DFF" d="M266.257 175.442c-.028-.429-8.07-5.638-20.67-6.948 0 0 .566-14.888 0-22.404-.567-7.514-1.275-16.447 6.513-23.822l9.546-6.948 9.156 1.482c10.982.74 19.665 8.113 56.165 64.061.946 1.453.759 3.373-.359 4.7-5.644 6.709-24.451 25.016-54.83 14.835 0 0-5.239-20.56-5.52-24.956"/>
        <path fill="#FDAA8A" d="M250.683 119.504s12.978-4.23 17.132-7.066l-4.532-16.259s-6.828-38.515-31.37-14.126c-3.191 4.533 1.44 8.694-6.208 15.328-.507.439-.373 1.26.248 1.505l3.456 1.364c.294.116.522.364.622.663.993 2.941 1.8 4.747 2.031 9.796.086 1.865 1.8 3.227 3.629 2.868 2.077-.41 4.599-1.28 7.891-2.327a3.153 3.153 0 0 1 3.215.81c.865.888 2.81 5.61 3.886 7.444"/>
        <path fill="#001C68" d="M243.32 91.996s3.824-5.389 7.292-1.985c3.47 3.403-1.771 7.585-5.344 7.585 2.371 4.892 1.335 16.52 12.495 14.18 0 0 5.482-.815 8.794-3.16.753-.534 1.124-1.456.899-2.35-.566-2.23-1.424-6.936.358-10.088 2.25-3.975 4.829-13.562-.312-24.443-.75-1.588-2.035-2.864-3.607-3.645-4.81-2.393-16.088-6.643-27.04-.838 0 0 2.893-1.579 4.108-3.573.393-.647-.19-1.437-.926-1.261-1.774.425-5.233 1.736-10.662 5.756 0 0 1.401-1.074 2.382-2.96.297-.57-.232-1.225-.843-1.022-3.283 1.081-10.933 4.475-9.253 12.206 0 0 1.512 7.583 16.98 7.767 1.824.02 3.357 1.491 3.387 3.317.02 1.298.331 2.863 1.293 4.514"/>
        <path fill="#83BBFF" d="M248.476 126.7s-2.519-6.417 5.18-10.103c0 0 18.017-9.468 19.628.512 0 0-12.999-1.293-24.808 9.59"/>
        <path fill="#D5E7FF" d="M263.27 58.605a2.27 2.27 0 0 1-.376-.031c-1.44-.239-3.558-1.292-5.461-4.955l1.003-.524c1.69 3.248 3.458 4.164 4.643 4.36.655.106 1.29-.352 1.416-1.026.847-4.542-1.445-10.285-7.428-18.623-3.875-5.397-5.231-5.348-5.459-5.282-.294.081-.397.615-.406.742.183 13.01 9.68 20.226 9.777 20.298l-.675.91c-.1-.073-10.044-7.604-10.233-21.245.042-.583.35-1.55 1.231-1.797.924-.258 2.622.051 6.686 5.712 6.178 8.611 8.529 14.622 7.621 19.492-.214 1.15-1.224 1.97-2.34 1.97"/>
        <path fill="#D5E7FF" d="M256.276 34.77c-.444 0-.818.15-1.12.448-1.324 1.304-1.29 4.986-.836 7.117.736-.068 1.317-.11 1.66-.132.033-.003.746-.086 2.313.087-.154-2.683.504-4.572 1.33-5.862-.281-.215-.583-.436-.908-.658-.963-.666-1.778-1-2.44-1m3.163 7.673c.86.134 1.894.33 3.118.62.173-.163.342-.332.515-.503-.012.008.337-.499.156-1.505-.16-.896-.79-2.234-2.72-3.908-.86 1.406-1.22 3.199-1.07 5.296m4.403.94l.25.068c1.811.484 3.27.395 4.333-.261 1.236-.764 1.51-2.035 1.513-2.048.045-.176.872-3.754-4.122-5.85-1.63-.687-3.475-.324-4.588.898l-.04.045c1.856 1.591 2.92 3.164 3.167 4.69.234 1.438-.358 2.283-.427 2.374l-.086.084m-4.267.233c.033.213.07.431.114.652l.087.442-.411.185c-1.034.462-2.195 1.268-2.28 1.729-.006.033-.017.084.088.188.363.252 2.21-.885 4.379-2.814a37.73 37.73 0 0 0-1.977-.382m-.67 12.21c-.644 0-1.244-.237-1.79-.705-2.648-2.275-3.27-9.78-3.351-10.947a3.938 3.938 0 0 1-.27-.615c-4.18.45-9.16 1.38-9.902 2.676-.07.121-.096.243.002.44 1.171 2.348 7.008 2.279 9.156 2.053l.118 1.129c-.871.091-8.557.791-10.288-2.674-.255-.511-.245-1.035.03-1.513 1.096-1.913 6.883-2.828 10.58-3.224-.523-2.492-.487-6.4 1.174-8.036.823-.813 2.36-1.397 4.998.424.33.23.645.46.945.688l.085-.096c1.436-1.576 3.792-2.05 5.862-1.181 5.93 2.49 4.8 7.109 4.788 7.155-.009.044-.378 1.738-2.023 2.755-1.338.827-3.095.959-5.217.391a46.069 46.069 0 0 0-.912-.234c-2.26 2.128-5.301 4.522-6.52 3.302-.433-.433-.455-.89-.398-1.196.193-1.056 1.726-1.96 2.526-2.366a19.088 19.088 0 0 1-.092-.604c-1.591-.192-2.307-.116-2.32-.116-.449.03-.927.068-1.425.111.042.094.085.175.13.24l.084.128.01.154c.136 2.271.934 8.55 2.968 10.296.38.325.768.466 1.198.424l.104 1.131c-.084.008-.167.01-.25.01"/>
        <path fill="#D5E7FF" d="M258.19 51.385c-2.034 0-4.005-.195-5.732-.688-1.987-.566-3.547-2.043-4.073-3.855-.486-1.672-.363-4.214 2.984-6.83 1.424-1.114 2.95-1.495 4.54-1.135 4.44 1.008 7.749 7.563 7.886 7.84l-1.012.507c-.033-.063-3.208-6.353-7.126-7.241-1.252-.281-2.431.018-3.591.924-2.286 1.788-3.157 3.677-2.594 5.617.419 1.44 1.682 2.621 3.294 3.081 7.262 2.069 19.493-1.49 20.978-2.07 1.746-.682 2.575-1.788 2.548-2.218-.002-.03-.007-.096-.215-.148-5.021-1.265-10.21-2.305-10.26-2.317l.221-1.111c.053.01 5.267 1.056 10.315 2.328.634.16 1.034.6 1.069 1.18.073 1.15-1.33 2.588-3.266 3.343-1.246.486-8.98 2.793-15.966 2.793M246.605 42.128c-1.05-.83-1.317-2.845-1.344-3.072l1.125-.135c.081.679.403 1.908.921 2.316l-.702.891zM261.022 32.18c-1.724-.78-2.856-.422-2.906-.406l-.37-1.072c.063-.024 1.576-.537 3.742.444l-.466 1.033zM275.139 40.636l-.963-.601c.81-1.301.954-2.967.955-2.984l1.13.09c-.006.08-.164 1.954-1.122 3.495"/>
        <path fill="#FFF" d="M161.984 121.024l-16.437.105a4.437 4.437 0 0 1-4.617-4.253l-1.217-16.435a4.441 4.441 0 0 1 4.248-4.624l16.437-.105a4.439 4.439 0 0 1 4.617 4.253l1.217 16.435a4.44 4.44 0 0 1-4.248 4.624M208.67 101.945h-35.145a1.95 1.95 0 0 1 0-3.9h35.145c1.075 0 1.947.873 1.947 1.95s-.872 1.95-1.947 1.95M209.06 109.734h-35.145a1.948 1.948 0 0 1-1.947-1.95c0-1.077.871-1.95 1.947-1.95h35.145a1.95 1.95 0 0 1 0 3.9M190.668 117.263h-16.362a1.948 1.948 0 0 1-1.947-1.95c0-1.077.872-1.95 1.947-1.95h16.362c1.076 0 1.947.873 1.947 1.95 0 1.078-.871 1.95-1.947 1.95"/>
        <path fill="#F00" d="M158.723 117.46l-14.827-14.85a1.95 1.95 0 0 1 0-2.757 1.943 1.943 0 0 1 2.752 0l14.828 14.85a1.95 1.95 0 0 1 0 2.757 1.943 1.943 0 0 1-2.753 0"/>
        <path fill="#F00" d="M144.04 114.558l15.111-15.134a1.945 1.945 0 0 1 2.754 0 1.95 1.95 0 0 1 0 2.757l-15.112 15.134a1.943 1.943 0 0 1-2.753 0 1.953 1.953 0 0 1 0-2.757M92.257 52.09l10.164 18.06 7.265-5.595 7.49 9.477-6.12-15.296-6.338 4.325-4.649-14.718zM88.47 79.057l15.742 5.37 1.362-7.246 9.552 1.66-11.843-5.88-1.485 5.988-10.651-6.325zM109.695 5.403l-4.022 41.548 18.432-.84 1.45 24.292 7.512-32.315-15.44-.185 9.275-29.66z"/>
    </g>
</svg>
